<svg width="666.3px" height="122px" xmlns="http://www.w3.org/2000/svg" viewBox="-83.12746582031247 13.9893798828125 666.2549316406249 122.021240234375" style="background: rgba(0, 0, 0, 0)" preserveAspectRatio="xMidYMid"><defs><linearGradient id="editing-shiny-gradient" x1="0.04322727117869957" x2="0.9567727288213004" y1="0.2966316784620999" y2="0.7033683215379001" gradientUnits="objectBoundingBox"><stop offset="0" stop-color="#ffb200"></stop><stop offset="0.5" stop-color="#e10057"></stop><stop offset="1" stop-color="#5a1a80"></stop></linearGradient><linearGradient id="editing-shiny-gradient2" x1="0" x2="0" y1="0" y2="1"><stop offset="0.2" stop-color="#ffffff" stop-opacity="0.8"></stop><stop offset="0.8" stop-color="#ffffff" stop-opacity="0"></stop></linearGradient><filter id="editing-shiny2" x="-100%" y="-100%" width="300%" height="300%"><feMorphology operator="erode" radius="2"></feMorphology></filter><filter id="editing-shiny" x="-100%" y="-100%" width="300%" height="300%"><feFlood flood-color="#fff" result="flood"></feFlood><feConvolveMatrix in="SourceGraphic" result="conv" order="8,8" divisor="1" kernelMatrix="0 0 0 0 0 0 0 0 0 0 0 1 1 0 0 0 0 0 0 1 1 0 0 0 0 0 1 0 0 1 0 0 0 0 1 0 0 1 0 0 0 1 0 0 0 0 1 0 0 1 1 0 0 1 1 0 0 0 0 1 1 0 0 0 "></feConvolveMatrix><feOffset dx="0" dy="4" in="conv" result="offset"></feOffset><feComposite operator="in" in="flood" in2="offset" result="comp"></feComposite><feGaussianBlur in="offset" stdDeviation="3" result="shadow"></feGaussianBlur><feColorMatrix in="shadow" type="matrix" values="0.7 0 0 0 0  0 0.7 0 0 0  0 0 0.7 0 0  0 0 0 0.3 0" result="dark-shadow"></feColorMatrix><feOffset dx="0" dy="4" in="dark-shadow" result="offset-shadow"></feOffset><feOffset dx="0" dy="2" in="conv" result="offset-2"></feOffset><feComposite operator="out" in="offset" in2="offset-2" result="edge-diff"></feComposite><feGaussianBlur in="edge-diff" stdDeviation="1" result="edge-blur"></feGaussianBlur><feColorMatrix in="edge-blur" result="edge-shadow" type="matrix" values="0 0 0 0 0  0 0 0 0 0  0 0 0 0 0  0 0 0 0.5 0"></feColorMatrix><feComposite operator="in" in="edge-shadow" in2="offset" result="edge-shadow-in"></feComposite><feOffset dx="0" dy="1" in="edge-shadow-in" result="edge-shadow-final"></feOffset><feMerge result="out"><feMergeNode in="offset-shadow"></feMergeNode><feMergeNode in="comp"></feMergeNode><feMergeNode in="edge-shadow-final"></feMergeNode><feMergeNode in="SourceGraphic"></feMergeNode></feMerge></filter></defs><g filter="url(#editing-shiny)"><g transform="translate(12.8,104.5)"><path d="M 14.3 0 L 0.4 0 L 8.5 -42.2 L 22.6 -42.2 L 14.3 0 Z M 70.1 1.3 L 70.1 1.3 L 70.1 1.3 Q 62.3 1.3 62.3 -4.7 L 62.3 -4.7 L 62.3 -4.7 Q 62.3 -7.4 63.5 -12.4 L 63.5 -12.4 L 63.5 -12.4 Q 64.6 -17.5 65 -19.6 L 65 -19.6 L 65 -19.6 Q 65.9 -24.3 65.9 -25.7 L 65.9 -25.7 L 65.9 -25.7 Q 65.9 -29 63.4 -29 L 63.4 -29 L 63.4 -29 Q 61.8 -29 60.3 -26.8 L 60.3 -26.8 L 60.3 -26.8 Q 58.8 -24.6 58 -20.2 L 58 -20.2 L 54.1 0 L 41.6 1.3 L 45.1 -16.1 L 45.1 -16.1 Q 45.6 -19 46.1 -22.3 L 46.1 -22.3 L 46.1 -22.3 Q 46.7 -25.5 46.7 -26.1 L 46.7 -26.1 L 46.7 -26.1 Q 46.7 -29 44.5 -29 L 44.5 -29 L 44.5 -29 Q 43 -29 41.4 -26.8 L 41.4 -26.8 L 41.4 -26.8 Q 39.8 -24.6 38.9 -20.2 L 38.9 -20.2 L 35 0 L 22.4 1.3 L 29.1 -32.6 L 39.5 -33.9 L 38.5 -27.5 L 38.5 -27.5 Q 40.1 -30.9 43.2 -32.4 L 43.2 -32.4 L 43.2 -32.4 Q 46.3 -33.9 51.1 -33.9 L 51.1 -33.9 L 51.1 -33.9 Q 53.8 -33.9 55.6 -32.6 L 55.6 -32.6 L 55.6 -32.6 Q 57.4 -31.2 58 -29.1 L 58 -29.1 L 58 -29.1 Q 59.1 -31.3 61.9 -32.6 L 61.9 -32.6 L 61.9 -32.6 Q 64.6 -33.9 68.1 -33.9 L 68.1 -33.9 L 68.1 -33.9 Q 71.5 -33.9 73.2 -33.2 L 73.2 -33.2 L 73.2 -33.2 Q 74.9 -32.5 75.9 -31.2 L 75.9 -31.2 L 75.9 -31.2 Q 77.6 -29 77.6 -24.9 L 77.6 -24.9 L 77.6 -24.9 Q 77.6 -20.9 75.9 -12.5 L 75.9 -12.5 L 75.9 -12.5 Q 75 -8.4 75 -6.9 L 75 -6.9 L 75 -6.9 Q 75 -5.4 75.9 -4.5 L 75.9 -4.5 L 75.9 -4.5 Q 76.7 -3.6 78 -3.5 L 78 -3.5 L 78 -3.5 Q 77.4 -1.3 75.2 0 L 75.2 0 L 75.2 0 Q 73 1.3 70.1 1.3 Z M 85.7 -1.9 L 85.7 -1.9 L 85.7 -1.9 Q 84.2 -3.6 83.5 -6.2 L 83.5 -6.2 L 83.5 -6.2 Q 82.9 -8.8 82.9 -13.1 L 82.9 -13.1 L 82.9 -13.1 Q 82.9 -17.4 84.3 -21.3 L 84.3 -21.3 L 84.3 -21.3 Q 85.8 -25.2 88.5 -28 L 88.5 -28 L 88.5 -28 Q 94 -33.9 103.1 -33.9 L 103.1 -33.9 L 103.1 -33.9 Q 106.4 -33.9 108.7 -32.8 L 108.7 -32.8 L 119.7 -33.9 L 114.9 -9 L 114.9 -9 Q 114.8 -8.2 114.8 -6.8 L 114.8 -6.8 L 114.8 -6.8 Q 114.8 -5.4 115.6 -4.5 L 115.6 -4.5 L 115.6 -4.5 Q 116.5 -3.6 117.8 -3.5 L 117.8 -3.5 L 117.8 -3.5 Q 117.1 -1.3 114.8 0 L 114.8 0 L 114.8 0 Q 112.5 1.3 109.8 1.3 L 109.8 1.3 L 109.8 1.3 Q 107.2 1.3 105.4 0.3 L 105.4 0.3 L 105.4 0.3 Q 103.7 -0.7 103.2 -2.4 L 103.2 -2.4 L 103.2 -2.4 Q 102.1 -0.8 100 0.3 L 100 0.3 L 100 0.3 Q 97.8 1.3 94.9 1.3 L 94.9 1.3 L 94.9 1.3 Q 92 1.3 89.6 0.5 L 89.6 0.5 L 89.6 0.5 Q 87.2 -0.3 85.7 -1.9 Z M 99.2 -27.9 L 99.2 -27.9 L 99.2 -27.9 Q 98.5 -26.8 97.9 -24.8 L 97.9 -24.8 L 97.9 -24.8 Q 97.2 -22.9 96.2 -17.6 L 96.2 -17.6 L 96.2 -17.6 Q 95.1 -12.4 95.1 -8.7 L 95.1 -8.7 L 95.1 -8.7 Q 95.1 -5 95.7 -3.9 L 95.7 -3.9 L 95.7 -3.9 Q 96.3 -2.8 97.3 -2.8 L 97.3 -2.8 L 97.3 -2.8 Q 99.3 -2.8 100.8 -4.8 L 100.8 -4.8 L 100.8 -4.8 Q 102.3 -6.7 102.9 -10.2 L 102.9 -10.2 L 106.3 -28.9 L 106.3 -28.9 Q 105 -30.1 103.4 -30.1 L 103.4 -30.1 L 103.4 -30.1 Q 101.8 -30.1 100.9 -29.6 L 100.9 -29.6 L 100.9 -29.6 Q 100 -29.1 99.2 -27.9 Z M 127.4 -26.8 L 127.4 -26.8 L 127.4 -26.8 Q 129.6 -29.8 132.9 -31.9 L 132.9 -31.9 L 132.9 -31.9 Q 136.2 -33.9 140.2 -33.9 L 140.2 -33.9 L 140.2 -33.9 Q 144.3 -33.9 146.2 -32.6 L 146.2 -32.6 L 158.7 -33.9 L 154.4 -9.3 L 154.4 -9.3 Q 152.1 3.2 147.4 8.1 L 147.4 8.1 L 147.4 8.1 Q 142.8 12.8 134 12.8 L 134 12.8 L 134 12.8 Q 127.3 12.8 123.5 10.7 L 123.5 10.7 L 123.5 10.7 Q 119.6 8.6 119.6 5.1 L 119.6 5.1 L 119.6 5.1 Q 119.6 2.4 121.6 0.9 L 121.6 0.9 L 121.6 0.9 Q 123.6 -0.6 126.7 -0.6 L 126.7 -0.6 L 126.7 -0.6 Q 129.3 -0.6 131.4 0.6 L 131.4 0.6 L 131.4 0.6 Q 132.6 1.3 133.2 2.2 L 133.2 2.2 L 133.2 2.2 Q 131.7 3.5 131.7 5.6 L 131.7 5.6 L 131.7 5.6 Q 131.7 8.3 134.3 8.3 L 134.3 8.3 L 134.3 8.3 Q 138.6 8.3 141 -1.8 L 141 -1.8 L 141 -1.8 Q 141.7 -4.5 142.3 -7.3 L 142.3 -7.3 L 142.3 -7.3 Q 139.4 -3.8 132.9 -3.8 L 132.9 -3.8 L 132.9 -3.8 Q 128.3 -3.8 125.7 -6 L 125.7 -6 L 125.7 -6 Q 123.1 -8.1 123.1 -13.3 L 123.1 -13.3 L 123.1 -13.3 Q 123.1 -16.4 124.2 -20.1 L 124.2 -20.1 L 124.2 -20.1 Q 125.3 -23.7 127.4 -26.8 Z M 135.7 -13.1 L 135.7 -13.1 L 135.7 -13.1 Q 135.7 -8.7 138 -8.7 L 138 -8.7 L 138 -8.7 Q 139.5 -8.7 141 -10.4 L 141 -10.4 L 141 -10.4 Q 142.1 -11.7 142.6 -13.7 L 142.6 -13.7 L 145.9 -30.1 L 145.9 -30.1 Q 145.5 -30.2 145.2 -30.3 L 145.2 -30.3 L 145.2 -30.3 Q 144.6 -30.6 143.7 -30.6 L 143.7 -30.6 L 143.7 -30.6 Q 139.8 -30.6 137.5 -24.2 L 137.5 -24.2 L 137.5 -24.2 Q 135.7 -19.2 135.7 -13.1 Z M 187.1 -10.8 L 187.1 -10.8 L 187.1 -10.8 Q 188.7 -9.7 188.7 -7.3 L 188.7 -7.3 L 188.7 -7.3 Q 188.7 -4.9 187.5 -3.4 L 187.5 -3.4 L 187.5 -3.4 Q 186.3 -1.9 184.3 -0.8 L 184.3 -0.8 L 184.3 -0.8 Q 180.2 1.3 175.8 1.3 L 175.8 1.3 L 175.8 1.3 Q 171.4 1.3 168.8 0.3 L 168.8 0.3 L 168.8 0.3 Q 166.2 -0.6 164.5 -2.4 L 164.5 -2.4 L 164.5 -2.4 Q 161.1 -5.8 161.1 -12 L 161.1 -12 L 161.1 -12 Q 161.1 -21.7 166.3 -27.6 L 166.3 -27.6 L 166.3 -27.6 Q 172 -33.9 181.8 -33.9 L 181.8 -33.9 L 181.8 -33.9 Q 187.8 -33.9 190.8 -31.4 L 190.8 -31.4 L 190.8 -31.4 Q 193.1 -29.4 193.1 -26.3 L 193.1 -26.3 L 193.1 -26.3 Q 193.1 -15 173.6 -15 L 173.6 -15 L 173.6 -15 Q 173.4 -13.4 173.4 -12 L 173.4 -12 L 173.4 -12 Q 173.4 -9 174.7 -7.9 L 174.7 -7.9 L 174.7 -7.9 Q 176 -6.8 178.4 -6.8 L 178.4 -6.8 L 178.4 -6.8 Q 180.9 -6.8 183.5 -7.9 L 183.5 -7.9 L 183.5 -7.9 Q 186.1 -9 187.1 -10.8 Z M 174.1 -17.8 L 174.1 -17.8 L 174.1 -17.8 Q 178.6 -17.8 181.3 -20.6 L 181.3 -20.6 L 181.3 -20.6 Q 183.9 -23.3 183.9 -27.6 L 183.9 -27.6 L 183.9 -27.6 Q 183.9 -29.1 183.3 -29.9 L 183.3 -29.9 L 183.3 -29.9 Q 182.8 -30.7 181.7 -30.7 L 181.7 -30.7 L 181.7 -30.7 Q 180.6 -30.7 179.7 -30.2 L 179.7 -30.2 L 179.7 -30.2 Q 178.8 -29.8 177.8 -28.4 L 177.8 -28.4 L 177.8 -28.4 Q 175.4 -25.2 174.1 -17.8 Z M 214.4 -22.5 L 214.4 -22.5 L 214.4 -22.5 Q 215.3 -24.8 215.3 -26.9 L 215.3 -26.9 L 215.3 -26.9 Q 215.3 -30.7 212.2 -30.7 L 212.2 -30.7 L 212.2 -30.7 Q 210.6 -30.7 209.3 -29.2 L 209.3 -29.2 L 209.3 -29.2 Q 208 -27.8 208 -26 L 208 -26 L 208 -26 Q 208 -24.7 209 -23.7 L 209 -23.7 L 209 -23.7 Q 210.5 -22.3 214.3 -20 L 214.3 -20 L 214.3 -20 Q 218.1 -17.7 219.5 -15.8 L 219.5 -15.8 L 219.5 -15.8 Q 220.9 -13.9 220.9 -11.3 L 220.9 -11.3 L 220.9 -11.3 Q 220.9 -8.7 219.7 -6.3 L 219.7 -6.3 L 219.7 -6.3 Q 218.4 -4 216.2 -2.3 L 216.2 -2.3 L 216.2 -2.3 Q 211.4 1.3 203.7 1.3 L 203.7 1.3 L 203.7 1.3 Q 199.6 1.3 196.3 -0.9 L 196.3 -0.9 L 196.3 -0.9 Q 193.2 -3 193.2 -5.5 L 193.2 -5.5 L 193.2 -5.5 Q 193.2 -8 195 -9.5 L 195 -9.5 L 195 -9.5 Q 196.8 -10.9 199.5 -10.9 L 199.5 -10.9 L 199.5 -10.9 Q 202.2 -10.9 203.8 -9.9 L 203.8 -9.9 L 203.8 -9.9 Q 203 -7.8 203 -6.4 L 203 -6.4 L 203 -6.4 Q 203 -2.2 206.6 -2.2 L 206.6 -2.2 L 206.6 -2.2 Q 208.1 -2.2 209.2 -3.1 L 209.2 -3.1 L 209.2 -3.1 Q 210.2 -4.1 210.2 -5.8 L 210.2 -5.8 L 210.2 -5.8 Q 210.2 -9 204.7 -12.5 L 204.7 -12.5 L 204.7 -12.5 Q 200.2 -15.4 199.2 -16.6 L 199.2 -16.6 L 199.2 -16.6 Q 197.4 -18.6 197.4 -21.2 L 197.4 -21.2 L 197.4 -21.2 Q 197.4 -23.7 198.7 -26.2 L 198.7 -26.2 L 198.7 -26.2 Q 199.9 -28.6 202.1 -30.3 L 202.1 -30.3 L 202.1 -30.3 Q 206.8 -33.9 214.9 -33.9 L 214.9 -33.9 L 214.9 -33.9 Q 219.1 -33.9 221.5 -32.3 L 221.5 -32.3 L 221.5 -32.3 Q 224 -30.6 224 -27.8 L 224 -27.8 L 224 -27.8 Q 224 -25 222.3 -23.4 L 222.3 -23.4 L 222.3 -23.4 Q 220.6 -21.8 217.5 -21.8 L 217.5 -21.8 L 217.5 -21.8 Q 215.4 -21.8 214.4 -22.5 Z M 265.5 -20.6 L 278.4 -21.8 L 278.4 -21.8 Q 273.8 -11.7 273.8 0.1 L 273.8 0.1 L 273.8 0.1 Q 272.1 1.3 269.5 1.3 L 269.5 1.3 L 269.5 1.3 Q 267 1.3 265.4 0.1 L 265.4 0.1 L 265.4 0.1 Q 263.8 -1.1 263.5 -2.3 L 263.5 -2.3 L 263.5 -2.3 Q 261.9 -0.6 259.3 0.3 L 259.3 0.3 L 259.3 0.3 Q 256.7 1.3 253.9 1.3 L 253.9 1.3 L 253.9 1.3 Q 251.2 1.3 248.8 0.4 L 248.8 0.4 L 248.8 0.4 Q 246.4 -0.5 244.5 -2.5 L 244.5 -2.5 L 244.5 -2.5 Q 240.4 -6.8 240.4 -15.1 L 240.4 -15.1 L 240.4 -15.1 Q 240.4 -27.9 247.3 -35.6 L 247.3 -35.6 L 247.3 -35.6 Q 254.3 -43.5 266.8 -43.5 L 266.8 -43.5 L 266.8 -43.5 Q 275.5 -43.5 278.5 -39 L 278.5 -39 L 278.5 -39 Q 279.5 -37.6 279.5 -35.9 L 279.5 -35.9 L 279.5 -35.9 Q 279.5 -34.2 278.8 -32.8 L 278.8 -32.8 L 278.8 -32.8 Q 278 -31.4 276.9 -30.2 L 276.9 -30.2 L 276.9 -30.2 Q 274.1 -27.6 270.7 -27.6 L 270.7 -27.6 L 270.7 -27.6 Q 269.4 -27.6 268.1 -28.1 L 268.1 -28.1 L 268.1 -28.1 Q 268.4 -30 268.4 -32.3 L 268.4 -32.3 L 268.4 -32.3 Q 268.4 -34.5 268.2 -35.5 L 268.2 -35.5 L 268.2 -35.5 Q 268 -36.5 267.6 -37.4 L 267.6 -37.4 L 267.6 -37.4 Q 266.8 -39.1 265 -39.1 L 265 -39.1 L 265 -39.1 Q 263.2 -39.1 261.1 -37.1 L 261.1 -37.1 L 261.1 -37.1 Q 259.1 -35.2 257.5 -32 L 257.5 -32 L 257.5 -32 Q 254 -24.8 254 -16.2 L 254 -16.2 L 254 -16.2 Q 254 -12.2 255.6 -9.4 L 255.6 -9.4 L 255.6 -9.4 Q 257.2 -6.3 260.2 -6.3 L 260.2 -6.3 L 260.2 -6.3 Q 261.2 -6.3 262.1 -6.8 L 262.1 -6.8 L 262.1 -6.8 Q 263 -7.4 263.4 -7.7 L 263.4 -7.7 L 265.5 -20.6 Z M 284.3 -1.9 L 284.3 -1.9 L 284.3 -1.9 Q 282.8 -3.6 282.1 -6.2 L 282.1 -6.2 L 282.1 -6.2 Q 281.5 -8.8 281.5 -13.1 L 281.5 -13.1 L 281.5 -13.1 Q 281.5 -17.4 282.9 -21.3 L 282.9 -21.3 L 282.9 -21.3 Q 284.4 -25.2 287.1 -28 L 287.1 -28 L 287.1 -28 Q 292.6 -33.9 301.7 -33.9 L 301.7 -33.9 L 301.7 -33.9 Q 305 -33.9 307.3 -32.8 L 307.3 -32.8 L 318.3 -33.9 L 313.5 -9 L 313.5 -9 Q 313.3 -8.2 313.3 -6.8 L 313.3 -6.8 L 313.3 -6.8 Q 313.3 -5.4 314.2 -4.5 L 314.2 -4.5 L 314.2 -4.5 Q 315.1 -3.6 316.4 -3.5 L 316.4 -3.5 L 316.4 -3.5 Q 315.7 -1.3 313.4 0 L 313.4 0 L 313.4 0 Q 311 1.3 308.4 1.3 L 308.4 1.3 L 308.4 1.3 Q 305.8 1.3 304 0.3 L 304 0.3 L 304 0.3 Q 302.3 -0.7 301.8 -2.4 L 301.8 -2.4 L 301.8 -2.4 Q 300.7 -0.8 298.6 0.3 L 298.6 0.3 L 298.6 0.3 Q 296.4 1.3 293.5 1.3 L 293.5 1.3 L 293.5 1.3 Q 290.6 1.3 288.2 0.5 L 288.2 0.5 L 288.2 0.5 Q 285.8 -0.3 284.3 -1.9 Z M 297.8 -27.9 L 297.8 -27.9 L 297.8 -27.9 Q 297.1 -26.8 296.4 -24.8 L 296.4 -24.8 L 296.4 -24.8 Q 295.8 -22.9 294.8 -17.6 L 294.8 -17.6 L 294.8 -17.6 Q 293.7 -12.4 293.7 -8.7 L 293.7 -8.7 L 293.7 -8.7 Q 293.7 -5 294.3 -3.9 L 294.3 -3.9 L 294.3 -3.9 Q 294.9 -2.8 295.9 -2.8 L 295.9 -2.8 L 295.9 -2.8 Q 297.9 -2.8 299.4 -4.8 L 299.4 -4.8 L 299.4 -4.8 Q 300.9 -6.7 301.5 -10.2 L 301.5 -10.2 L 304.9 -28.9 L 304.9 -28.9 Q 303.6 -30.1 302 -30.1 L 302 -30.1 L 302 -30.1 Q 300.4 -30.1 299.5 -29.6 L 299.5 -29.6 L 299.5 -29.6 Q 298.6 -29.1 297.8 -27.9 Z M 337 -3.5 L 337 -3.5 L 337 -3.5 Q 335 1.3 328.7 1.3 L 328.7 1.3 L 328.7 1.3 Q 325.5 1.3 323.5 -1 L 323.5 -1 L 323.5 -1 Q 321.8 -2.8 321.8 -4.9 L 321.8 -4.9 L 321.8 -4.9 Q 321.8 -9.7 324 -20.2 L 324 -20.2 L 328.7 -44.8 L 341.7 -46.1 L 335.5 -13.7 L 335.5 -13.7 Q 334.4 -9 334.4 -7.3 L 334.4 -7.3 L 334.4 -7.3 Q 334.4 -3.6 337 -3.5 Z M 357.8 -3.5 L 357.8 -3.5 L 357.8 -3.5 Q 355.8 1.3 349.4 1.3 L 349.4 1.3 L 349.4 1.3 Q 346.2 1.3 344.2 -1 L 344.2 -1 L 344.2 -1 Q 342.5 -2.8 342.5 -4.9 L 342.5 -4.9 L 342.5 -4.9 Q 342.5 -9.7 344.8 -20.2 L 344.8 -20.2 L 349.4 -44.8 L 362.4 -46.1 L 356.2 -13.7 L 356.2 -13.7 Q 355.1 -9 355.1 -7.3 L 355.1 -7.3 L 355.1 -7.3 Q 355.1 -3.6 357.8 -3.5 Z M 366 -1.9 L 366 -1.9 L 366 -1.9 Q 364.5 -3.6 363.8 -6.2 L 363.8 -6.2 L 363.8 -6.2 Q 363.1 -8.8 363.1 -13.1 L 363.1 -13.1 L 363.1 -13.1 Q 363.1 -17.4 364.6 -21.3 L 364.6 -21.3 L 364.6 -21.3 Q 366.1 -25.2 368.8 -28 L 368.8 -28 L 368.8 -28 Q 374.3 -33.9 383.4 -33.9 L 383.4 -33.9 L 383.4 -33.9 Q 386.6 -33.9 389 -32.8 L 389 -32.8 L 399.9 -33.9 L 395.2 -9 L 395.2 -9 Q 395 -8.2 395 -6.8 L 395 -6.8 L 395 -6.8 Q 395 -5.4 395.9 -4.5 L 395.9 -4.5 L 395.9 -4.5 Q 396.7 -3.6 398 -3.5 L 398 -3.5 L 398 -3.5 Q 397.4 -1.3 395 0 L 395 0 L 395 0 Q 392.7 1.3 390.1 1.3 L 390.1 1.3 L 390.1 1.3 Q 387.5 1.3 385.7 0.3 L 385.7 0.3 L 385.7 0.3 Q 383.9 -0.7 383.4 -2.4 L 383.4 -2.4 L 383.4 -2.4 Q 382.4 -0.8 380.2 0.3 L 380.2 0.3 L 380.2 0.3 Q 378.1 1.3 375.1 1.3 L 375.1 1.3 L 375.1 1.3 Q 372.2 1.3 369.9 0.5 L 369.9 0.5 L 369.9 0.5 Q 367.5 -0.3 366 -1.9 Z M 379.5 -27.9 L 379.5 -27.9 L 379.5 -27.9 Q 378.8 -26.8 378.1 -24.8 L 378.1 -24.8 L 378.1 -24.8 Q 377.5 -22.9 376.4 -17.6 L 376.4 -17.6 L 376.4 -17.6 Q 375.4 -12.4 375.4 -8.7 L 375.4 -8.7 L 375.4 -8.7 Q 375.4 -5 375.9 -3.9 L 375.9 -3.9 L 375.9 -3.9 Q 376.5 -2.8 377.5 -2.8 L 377.5 -2.8 L 377.5 -2.8 Q 379.6 -2.8 381.1 -4.8 L 381.1 -4.8 L 381.1 -4.8 Q 382.6 -6.7 383.2 -10.2 L 383.2 -10.2 L 386.6 -28.9 L 386.6 -28.9 Q 385.2 -30.1 383.6 -30.1 L 383.6 -30.1 L 383.6 -30.1 Q 382.1 -30.1 381.1 -29.6 L 381.1 -29.6 L 381.1 -29.6 Q 380.2 -29.1 379.5 -27.9 Z M 423.4 -18 L 423.4 -18 L 423.4 -18 Q 425.7 -22.1 425.7 -26.2 L 425.7 -26.2 L 425.7 -26.2 Q 425.7 -29 423.7 -29 L 423.7 -29 L 423.7 -29 Q 422.2 -29 420.6 -26.4 L 420.6 -26.4 L 420.6 -26.4 Q 418.9 -23.7 418.4 -20.4 L 418.4 -20.4 L 415.1 0 L 401.9 1.3 L 408.4 -32.6 L 418.9 -33.9 L 417.8 -27.5 L 417.8 -27.5 Q 420.9 -33.9 428 -33.9 L 428 -33.9 L 428 -33.9 Q 431.7 -33.9 433.7 -32 L 433.7 -32 L 433.7 -32 Q 435.7 -30.1 435.7 -26.1 L 435.7 -26.1 L 435.7 -26.1 Q 435.7 -22.2 433.1 -19.7 L 433.1 -19.7 L 433.1 -19.7 Q 430.5 -17.2 426.1 -17.2 L 426.1 -17.2 L 426.1 -17.2 Q 424.2 -17.2 423.4 -18 Z M 457.1 -7.2 L 457.1 -7.2 L 457.1 -7.2 Q 453.8 -3.8 447.7 -3.8 L 447.7 -3.8 L 447.7 -3.8 Q 440.1 -3.8 438.5 -9.3 L 438.5 -9.3 L 438.5 -9.3 Q 437.9 -11 437.9 -12.9 L 437.9 -12.9 L 437.9 -12.9 Q 437.9 -14.7 438.3 -16.6 L 438.3 -16.6 L 441.3 -32.6 L 454.3 -33.9 L 450.8 -15.3 L 450.8 -15.3 Q 450.7 -14.5 450.5 -13.6 L 450.5 -13.6 L 450.5 -13.6 Q 450.3 -12.7 450.3 -11.7 L 450.3 -11.7 L 450.3 -11.7 Q 450.3 -10.8 450.6 -10.2 L 450.6 -10.2 L 450.6 -10.2 Q 450.9 -9.6 451.4 -9.2 L 451.4 -9.2 L 451.4 -9.2 Q 452.2 -8.7 453.5 -8.7 L 453.5 -8.7 L 453.5 -8.7 Q 454.9 -8.7 456.1 -10.4 L 456.1 -10.4 L 456.1 -10.4 Q 457.3 -12 457.9 -14.9 L 457.9 -14.9 L 461.4 -32.6 L 474 -33.9 L 469.2 -8.8 L 469.2 -8.8 Q 466.8 3.5 461.9 8.4 L 461.9 8.4 L 461.9 8.4 Q 459.5 10.9 456.2 11.9 L 456.2 11.9 L 456.2 11.9 Q 453 12.9 448.8 12.9 L 448.8 12.9 L 448.8 12.9 Q 442.1 12.9 438.3 10.8 L 438.3 10.8 L 438.3 10.8 Q 434.4 8.6 434.4 5.1 L 434.4 5.1 L 434.4 5.1 Q 434.4 2.5 436.4 1 L 436.4 1 L 436.4 1 Q 438.4 -0.5 441.5 -0.5 L 441.5 -0.5 L 441.5 -0.5 Q 444.2 -0.5 446.2 0.6 L 446.2 0.6 L 446.2 0.6 Q 447.4 1.3 448 2.2 L 448 2.2 L 448 2.2 Q 446.5 3.5 446.5 5.6 L 446.5 5.6 L 446.5 5.6 Q 446.5 8.4 449.1 8.4 L 449.1 8.4 L 449.1 8.4 Q 453.3 8.4 455.7 -1.3 L 455.7 -1.3 L 455.7 -1.3 Q 456.4 -4.2 457.1 -7.2 Z" fill="url(#editing-shiny-gradient)"></path></g></g><g filter="url(#editing-shiny2)"><g transform="matrix(1,0,0,1.2,17,130.5)"><path d="M 11.2 -20.9 L -2.7 -20.9 L 5.4 -63.2 L 19.5 -63.2 L 11.2 -20.9 Z M 67 -19.6 L 67 -19.6 L 67 -19.6 Q 59.2 -19.6 59.2 -25.7 L 59.2 -25.7 L 59.2 -25.7 Q 59.2 -28.3 60.3 -33.4 L 60.3 -33.4 L 60.3 -33.4 Q 61.5 -38.5 61.8 -40.5 L 61.8 -40.5 L 61.8 -40.5 Q 62.7 -45.2 62.7 -46.7 L 62.7 -46.7 L 62.7 -46.7 Q 62.7 -49.9 60.3 -49.9 L 60.3 -49.9 L 60.3 -49.9 Q 58.7 -49.9 57.2 -47.7 L 57.2 -47.7 L 57.2 -47.7 Q 55.6 -45.5 54.9 -41.1 L 54.9 -41.1 L 51 -20.9 L 38.5 -19.6 L 41.9 -37.1 L 41.9 -37.1 Q 42.5 -39.9 43 -43.2 L 43 -43.2 L 43 -43.2 Q 43.5 -46.5 43.5 -47 L 43.5 -47 L 43.5 -47 Q 43.5 -49.9 41.4 -49.9 L 41.4 -49.9 L 41.4 -49.9 Q 39.9 -49.9 38.3 -47.7 L 38.3 -47.7 L 38.3 -47.7 Q 36.7 -45.6 35.8 -41.1 L 35.8 -41.1 L 31.9 -20.9 L 19.3 -19.6 L 26 -53.6 L 36.4 -54.8 L 35.3 -48.4 L 35.3 -48.4 Q 37 -51.8 40.1 -53.3 L 40.1 -53.3 L 40.1 -53.3 Q 43.2 -54.8 48 -54.8 L 48 -54.8 L 48 -54.8 Q 50.7 -54.8 52.5 -53.5 L 52.5 -53.5 L 52.5 -53.5 Q 54.3 -52.2 54.9 -50 L 54.9 -50 L 54.9 -50 Q 56 -52.2 58.7 -53.5 L 58.7 -53.5 L 58.7 -53.5 Q 61.5 -54.8 64.9 -54.8 L 64.9 -54.8 L 64.9 -54.8 Q 68.4 -54.8 70.1 -54.1 L 70.1 -54.1 L 70.1 -54.1 Q 71.8 -53.4 72.8 -52.2 L 72.8 -52.2 L 72.8 -52.2 Q 74.5 -49.9 74.5 -45.8 L 74.5 -45.8 L 74.5 -45.8 Q 74.5 -41.8 72.8 -33.4 L 72.8 -33.4 L 72.8 -33.4 Q 71.9 -29.3 71.9 -27.8 L 71.9 -27.8 L 71.9 -27.8 Q 71.9 -26.3 72.8 -25.4 L 72.8 -25.4 L 72.8 -25.4 Q 73.6 -24.5 74.9 -24.4 L 74.9 -24.4 L 74.9 -24.4 Q 74.3 -22.2 72.1 -20.9 L 72.1 -20.9 L 72.1 -20.9 Q 69.8 -19.6 67 -19.6 Z M 82.6 -22.8 L 82.6 -22.8 L 82.6 -22.8 Q 81.1 -24.5 80.4 -27.1 L 80.4 -27.1 L 80.4 -27.1 Q 79.8 -29.8 79.8 -34 L 79.8 -34 L 79.8 -34 Q 79.8 -38.3 81.2 -42.2 L 81.2 -42.2 L 81.2 -42.2 Q 82.7 -46.1 85.4 -49 L 85.4 -49 L 85.4 -49 Q 90.9 -54.8 100 -54.8 L 100 -54.8 L 100 -54.8 Q 103.3 -54.8 105.6 -53.8 L 105.6 -53.8 L 116.6 -54.8 L 111.8 -29.9 L 111.8 -29.9 Q 111.6 -29.1 111.6 -27.7 L 111.6 -27.7 L 111.6 -27.7 Q 111.6 -26.3 112.5 -25.4 L 112.5 -25.4 L 112.5 -25.4 Q 113.4 -24.5 114.6 -24.4 L 114.6 -24.4 L 114.6 -24.4 Q 114 -22.2 111.7 -20.9 L 111.7 -20.9 L 111.7 -20.9 Q 109.3 -19.6 106.7 -19.6 L 106.7 -19.6 L 106.7 -19.6 Q 104.1 -19.6 102.3 -20.6 L 102.3 -20.6 L 102.3 -20.6 Q 100.6 -21.6 100.1 -23.3 L 100.1 -23.3 L 100.1 -23.3 Q 99 -21.7 96.9 -20.7 L 96.9 -20.7 L 96.9 -20.7 Q 94.7 -19.6 91.8 -19.6 L 91.8 -19.6 L 91.8 -19.6 Q 88.9 -19.6 86.5 -20.4 L 86.5 -20.4 L 86.5 -20.4 Q 84.1 -21.2 82.6 -22.8 Z M 96.1 -48.8 L 96.1 -48.8 L 96.1 -48.8 Q 95.4 -47.7 94.7 -45.7 L 94.7 -45.7 L 94.7 -45.7 Q 94.1 -43.8 93 -38.6 L 93 -38.6 L 93 -38.6 Q 92 -33.3 92 -29.6 L 92 -29.6 L 92 -29.6 Q 92 -25.9 92.6 -24.8 L 92.6 -24.8 L 92.6 -24.8 Q 93.1 -23.7 94.2 -23.7 L 94.2 -23.7 L 94.2 -23.7 Q 96.2 -23.7 97.7 -25.7 L 97.7 -25.7 L 97.7 -25.7 Q 99.2 -27.6 99.8 -31.1 L 99.8 -31.1 L 103.2 -49.9 L 103.2 -49.9 Q 101.8 -51 100.3 -51 L 100.3 -51 L 100.3 -51 Q 98.7 -51 97.8 -50.5 L 97.8 -50.5 L 97.8 -50.5 Q 96.9 -50 96.1 -48.8 Z M 124.3 -47.7 L 124.3 -47.7 L 124.3 -47.7 Q 126.5 -50.7 129.8 -52.8 L 129.8 -52.8 L 129.8 -52.8 Q 133.1 -54.8 137.1 -54.8 L 137.1 -54.8 L 137.1 -54.8 Q 141.1 -54.8 143.1 -53.6 L 143.1 -53.6 L 155.6 -54.8 L 151.3 -30.3 L 151.3 -30.3 Q 149 -17.7 144.3 -12.8 L 144.3 -12.8 L 144.3 -12.8 Q 139.7 -8.1 130.9 -8.1 L 130.9 -8.1 L 130.9 -8.1 Q 124.2 -8.1 120.3 -10.2 L 120.3 -10.2 L 120.3 -10.2 Q 116.5 -12.3 116.5 -15.9 L 116.5 -15.9 L 116.5 -15.9 Q 116.5 -18.5 118.5 -20 L 118.5 -20 L 118.5 -20 Q 120.5 -21.5 123.5 -21.5 L 123.5 -21.5 L 123.5 -21.5 Q 126.2 -21.5 128.3 -20.3 L 128.3 -20.3 L 128.3 -20.3 Q 129.5 -19.6 130.1 -18.7 L 130.1 -18.7 L 130.1 -18.7 Q 128.6 -17.5 128.6 -15.4 L 128.6 -15.4 L 128.6 -15.4 Q 128.6 -12.6 131.2 -12.6 L 131.2 -12.6 L 131.2 -12.6 Q 135.4 -12.6 137.9 -22.7 L 137.9 -22.7 L 137.9 -22.7 Q 138.6 -25.5 139.2 -28.2 L 139.2 -28.2 L 139.2 -28.2 Q 136.3 -24.7 129.7 -24.7 L 129.7 -24.7 L 129.7 -24.7 Q 125.2 -24.7 122.6 -26.9 L 122.6 -26.9 L 122.6 -26.9 Q 120 -29.1 120 -34.2 L 120 -34.2 L 120 -34.2 Q 120 -37.4 121 -41 L 121 -41 L 121 -41 Q 122.1 -44.6 124.3 -47.7 Z M 132.6 -34 L 132.6 -34 L 132.6 -34 Q 132.6 -29.6 134.9 -29.6 L 134.9 -29.6 L 134.9 -29.6 Q 136.4 -29.6 137.9 -31.3 L 137.9 -31.3 L 137.9 -31.3 Q 139 -32.6 139.5 -34.6 L 139.5 -34.6 L 142.7 -51.1 L 142.7 -51.1 Q 142.4 -51.1 142.1 -51.3 L 142.1 -51.3 L 142.1 -51.3 Q 141.5 -51.5 140.6 -51.5 L 140.6 -51.5 L 140.6 -51.5 Q 136.7 -51.5 134.4 -45.1 L 134.4 -45.1 L 134.4 -45.1 Q 132.6 -40.1 132.6 -34 Z M 184 -31.7 L 184 -31.7 L 184 -31.7 Q 185.6 -30.7 185.6 -28.3 L 185.6 -28.3 L 185.6 -28.3 Q 185.6 -25.9 184.4 -24.3 L 184.4 -24.3 L 184.4 -24.3 Q 183.2 -22.8 181.2 -21.8 L 181.2 -21.8 L 181.2 -21.8 Q 177.1 -19.6 172.7 -19.6 L 172.7 -19.6 L 172.7 -19.6 Q 168.3 -19.6 165.7 -20.6 L 165.7 -20.6 L 165.7 -20.6 Q 163.1 -21.6 161.4 -23.4 L 161.4 -23.4 L 161.4 -23.4 Q 158 -26.7 158 -33 L 158 -33 L 158 -33 Q 158 -42.6 163.2 -48.5 L 163.2 -48.5 L 163.2 -48.5 Q 168.9 -54.8 178.6 -54.8 L 178.6 -54.8 L 178.6 -54.8 Q 184.7 -54.8 187.7 -52.3 L 187.7 -52.3 L 187.7 -52.3 Q 190 -50.4 190 -47.2 L 190 -47.2 L 190 -47.2 Q 190 -36 170.5 -36 L 170.5 -36 L 170.5 -36 Q 170.3 -34.3 170.3 -32.9 L 170.3 -32.9 L 170.3 -32.9 Q 170.3 -29.9 171.6 -28.8 L 171.6 -28.8 L 171.6 -28.8 Q 172.9 -27.7 175.3 -27.7 L 175.3 -27.7 L 175.3 -27.7 Q 177.7 -27.7 180.3 -28.8 L 180.3 -28.8 L 180.3 -28.8 Q 182.9 -29.9 184 -31.7 Z M 171 -38.7 L 171 -38.7 L 171 -38.7 Q 175.5 -38.7 178.1 -41.5 L 178.1 -41.5 L 178.1 -41.5 Q 180.8 -44.2 180.8 -48.5 L 180.8 -48.5 L 180.8 -48.5 Q 180.8 -50 180.2 -50.8 L 180.2 -50.8 L 180.2 -50.8 Q 179.7 -51.6 178.6 -51.6 L 178.6 -51.6 L 178.6 -51.6 Q 177.5 -51.6 176.6 -51.2 L 176.6 -51.2 L 176.6 -51.2 Q 175.6 -50.7 174.7 -49.3 L 174.7 -49.3 L 174.7 -49.3 Q 172.3 -46.1 171 -38.7 Z M 211.3 -43.4 L 211.3 -43.4 L 211.3 -43.4 Q 212.2 -45.8 212.2 -47.8 L 212.2 -47.8 L 212.2 -47.8 Q 212.2 -51.6 209.1 -51.6 L 209.1 -51.6 L 209.1 -51.6 Q 207.5 -51.6 206.2 -50.1 L 206.2 -50.1 L 206.2 -50.1 Q 204.9 -48.7 204.9 -46.9 L 204.9 -46.9 L 204.9 -46.9 Q 204.9 -45.6 205.9 -44.6 L 205.9 -44.6 L 205.9 -44.6 Q 207.4 -43.2 211.2 -40.9 L 211.2 -40.9 L 211.2 -40.9 Q 214.9 -38.6 216.4 -36.7 L 216.4 -36.7 L 216.4 -36.7 Q 217.8 -34.8 217.8 -32.2 L 217.8 -32.2 L 217.8 -32.2 Q 217.8 -29.6 216.6 -27.3 L 216.6 -27.3 L 216.6 -27.3 Q 215.3 -24.9 213.1 -23.2 L 213.1 -23.2 L 213.1 -23.2 Q 208.3 -19.6 200.6 -19.6 L 200.6 -19.6 L 200.6 -19.6 Q 196.4 -19.6 193.2 -21.8 L 193.2 -21.8 L 193.2 -21.8 Q 190 -23.9 190 -26.4 L 190 -26.4 L 190 -26.4 Q 190 -28.9 191.9 -30.4 L 191.9 -30.4 L 191.9 -30.4 Q 193.7 -31.9 196.4 -31.9 L 196.4 -31.9 L 196.4 -31.9 Q 199.1 -31.9 200.7 -30.8 L 200.7 -30.8 L 200.7 -30.8 Q 199.9 -28.7 199.9 -27.3 L 199.9 -27.3 L 199.9 -27.3 Q 199.9 -23.1 203.5 -23.1 L 203.5 -23.1 L 203.5 -23.1 Q 205 -23.1 206 -24.1 L 206 -24.1 L 206 -24.1 Q 207.1 -25 207.1 -26.7 L 207.1 -26.7 L 207.1 -26.7 Q 207.1 -29.9 201.6 -33.4 L 201.6 -33.4 L 201.6 -33.4 Q 197.1 -36.3 196.1 -37.5 L 196.1 -37.5 L 196.1 -37.5 Q 194.3 -39.5 194.3 -42.1 L 194.3 -42.1 L 194.3 -42.1 Q 194.3 -44.7 195.5 -47.1 L 195.5 -47.1 L 195.5 -47.1 Q 196.8 -49.5 199 -51.3 L 199 -51.3 L 199 -51.3 Q 203.7 -54.8 211.8 -54.8 L 211.8 -54.8 L 211.8 -54.8 Q 216 -54.8 218.4 -53.2 L 218.4 -53.2 L 218.4 -53.2 Q 220.9 -51.5 220.9 -48.7 L 220.9 -48.7 L 220.9 -48.7 Q 220.9 -45.9 219.2 -44.3 L 219.2 -44.3 L 219.2 -44.3 Q 217.5 -42.7 214.4 -42.7 L 214.4 -42.7 L 214.4 -42.7 Q 212.3 -42.7 211.3 -43.4 Z M 262.4 -41.5 L 275.3 -42.7 L 275.3 -42.7 Q 270.7 -32.6 270.7 -20.9 L 270.7 -20.9 L 270.7 -20.9 Q 268.9 -19.6 266.4 -19.6 L 266.4 -19.6 L 266.4 -19.6 Q 263.9 -19.6 262.3 -20.8 L 262.3 -20.8 L 262.3 -20.8 Q 260.7 -22 260.4 -23.2 L 260.4 -23.2 L 260.4 -23.2 Q 258.8 -21.6 256.2 -20.6 L 256.2 -20.6 L 256.2 -20.6 Q 253.6 -19.6 250.8 -19.6 L 250.8 -19.6 L 250.8 -19.6 Q 248.1 -19.6 245.7 -20.5 L 245.7 -20.5 L 245.7 -20.5 Q 243.3 -21.4 241.4 -23.4 L 241.4 -23.4 L 241.4 -23.4 Q 237.3 -27.8 237.3 -36 L 237.3 -36 L 237.3 -36 Q 237.3 -48.8 244.2 -56.5 L 244.2 -56.5 L 244.2 -56.5 Q 251.2 -64.4 263.7 -64.4 L 263.7 -64.4 L 263.7 -64.4 Q 272.3 -64.4 275.4 -60 L 275.4 -60 L 275.4 -60 Q 276.4 -58.6 276.4 -56.9 L 276.4 -56.9 L 276.4 -56.9 Q 276.4 -55.2 275.6 -53.7 L 275.6 -53.7 L 275.6 -53.7 Q 274.9 -52.3 273.7 -51.1 L 273.7 -51.1 L 273.7 -51.1 Q 271 -48.6 267.6 -48.6 L 267.6 -48.6 L 267.6 -48.6 Q 266.3 -48.6 265 -49 L 265 -49 L 265 -49 Q 265.2 -50.9 265.2 -53.2 L 265.2 -53.2 L 265.2 -53.2 Q 265.2 -55.4 265.1 -56.4 L 265.1 -56.4 L 265.1 -56.4 Q 264.9 -57.5 264.5 -58.3 L 264.5 -58.3 L 264.5 -58.3 Q 263.7 -60 261.9 -60 L 261.9 -60 L 261.9 -60 Q 260.1 -60 258 -58.1 L 258 -58.1 L 258 -58.1 Q 256 -56.1 254.4 -52.9 L 254.4 -52.9 L 254.4 -52.9 Q 250.9 -45.8 250.9 -37.1 L 250.9 -37.1 L 250.9 -37.1 Q 250.9 -33.1 252.4 -30.3 L 252.4 -30.3 L 252.4 -30.3 Q 254.1 -27.3 257 -27.3 L 257 -27.3 L 257 -27.3 Q 258.1 -27.3 259 -27.8 L 259 -27.8 L 259 -27.8 Q 259.9 -28.3 260.3 -28.7 L 260.3 -28.7 L 262.4 -41.5 Z M 281.2 -22.8 L 281.2 -22.8 L 281.2 -22.8 Q 279.7 -24.5 279 -27.1 L 279 -27.1 L 279 -27.1 Q 278.4 -29.8 278.4 -34 L 278.4 -34 L 278.4 -34 Q 278.4 -38.3 279.8 -42.2 L 279.8 -42.2 L 279.8 -42.2 Q 281.3 -46.1 284 -49 L 284 -49 L 284 -49 Q 289.5 -54.8 298.6 -54.8 L 298.6 -54.8 L 298.6 -54.8 Q 301.8 -54.8 304.2 -53.8 L 304.2 -53.8 L 315.2 -54.8 L 310.4 -29.9 L 310.4 -29.9 Q 310.2 -29.1 310.2 -27.7 L 310.2 -27.7 L 310.2 -27.7 Q 310.2 -26.3 311.1 -25.4 L 311.1 -25.4 L 311.1 -25.4 Q 312 -24.5 313.2 -24.4 L 313.2 -24.4 L 313.2 -24.4 Q 312.6 -22.2 310.3 -20.9 L 310.3 -20.9 L 310.3 -20.9 Q 307.9 -19.6 305.3 -19.6 L 305.3 -19.6 L 305.3 -19.6 Q 302.7 -19.6 300.9 -20.6 L 300.9 -20.6 L 300.9 -20.6 Q 299.2 -21.6 298.6 -23.3 L 298.6 -23.3 L 298.6 -23.3 Q 297.6 -21.7 295.4 -20.7 L 295.4 -20.7 L 295.4 -20.7 Q 293.3 -19.6 290.4 -19.6 L 290.4 -19.6 L 290.4 -19.6 Q 287.4 -19.6 285.1 -20.4 L 285.1 -20.4 L 285.1 -20.4 Q 282.7 -21.2 281.2 -22.8 Z M 294.7 -48.8 L 294.7 -48.8 L 294.7 -48.8 Q 294 -47.7 293.3 -45.7 L 293.3 -45.7 L 293.3 -45.7 Q 292.7 -43.8 291.6 -38.6 L 291.6 -38.6 L 291.6 -38.6 Q 290.6 -33.3 290.6 -29.6 L 290.6 -29.6 L 290.6 -29.6 Q 290.6 -25.9 291.2 -24.8 L 291.2 -24.8 L 291.2 -24.8 Q 291.7 -23.7 292.8 -23.7 L 292.8 -23.7 L 292.8 -23.7 Q 294.8 -23.7 296.3 -25.7 L 296.3 -25.7 L 296.3 -25.7 Q 297.8 -27.6 298.4 -31.1 L 298.4 -31.1 L 301.8 -49.9 L 301.8 -49.9 Q 300.4 -51 298.9 -51 L 298.9 -51 L 298.9 -51 Q 297.3 -51 296.4 -50.5 L 296.4 -50.5 L 296.4 -50.5 Q 295.4 -50 294.7 -48.8 Z M 333.9 -24.4 L 333.9 -24.4 L 333.9 -24.4 Q 331.9 -19.6 325.6 -19.6 L 325.6 -19.6 L 325.6 -19.6 Q 322.4 -19.6 320.3 -21.9 L 320.3 -21.9 L 320.3 -21.9 Q 318.7 -23.7 318.7 -25.9 L 318.7 -25.9 L 318.7 -25.9 Q 318.7 -30.7 320.9 -41.1 L 320.9 -41.1 L 325.6 -65.7 L 338.6 -67 L 332.4 -34.6 L 332.4 -34.6 Q 331.3 -29.9 331.3 -28.2 L 331.3 -28.2 L 331.3 -28.2 Q 331.3 -24.6 333.9 -24.4 Z M 354.6 -24.4 L 354.6 -24.4 L 354.6 -24.4 Q 352.7 -19.6 346.3 -19.6 L 346.3 -19.6 L 346.3 -19.6 Q 343.1 -19.6 341.1 -21.9 L 341.1 -21.9 L 341.1 -21.9 Q 339.4 -23.7 339.4 -25.9 L 339.4 -25.9 L 339.4 -25.9 Q 339.4 -30.7 341.7 -41.1 L 341.7 -41.1 L 346.3 -65.7 L 359.3 -67 L 353.1 -34.6 L 353.1 -34.6 Q 352 -29.9 352 -28.2 L 352 -28.2 L 352 -28.2 Q 352 -24.6 354.6 -24.4 Z M 362.9 -22.8 L 362.9 -22.8 L 362.9 -22.8 Q 361.4 -24.5 360.7 -27.1 L 360.7 -27.1 L 360.7 -27.1 Q 360 -29.8 360 -34 L 360 -34 L 360 -34 Q 360 -38.3 361.5 -42.2 L 361.5 -42.2 L 361.5 -42.2 Q 363 -46.1 365.7 -49 L 365.7 -49 L 365.7 -49 Q 371.2 -54.8 380.2 -54.8 L 380.2 -54.8 L 380.2 -54.8 Q 383.5 -54.8 385.9 -53.8 L 385.9 -53.8 L 396.8 -54.8 L 392.1 -29.9 L 392.1 -29.9 Q 391.9 -29.1 391.9 -27.7 L 391.9 -27.7 L 391.9 -27.7 Q 391.9 -26.3 392.8 -25.4 L 392.8 -25.4 L 392.8 -25.4 Q 393.6 -24.5 394.9 -24.4 L 394.9 -24.4 L 394.9 -24.4 Q 394.3 -22.2 391.9 -20.9 L 391.9 -20.9 L 391.9 -20.9 Q 389.6 -19.6 387 -19.6 L 387 -19.6 L 387 -19.6 Q 384.3 -19.6 382.6 -20.6 L 382.6 -20.6 L 382.6 -20.6 Q 380.8 -21.6 380.3 -23.3 L 380.3 -23.3 L 380.3 -23.3 Q 379.3 -21.7 377.1 -20.7 L 377.1 -20.7 L 377.1 -20.7 Q 374.9 -19.6 372 -19.6 L 372 -19.6 L 372 -19.6 Q 369.1 -19.6 366.7 -20.4 L 366.7 -20.4 L 366.7 -20.4 Q 364.4 -21.2 362.9 -22.8 Z M 376.4 -48.8 L 376.4 -48.8 L 376.4 -48.8 Q 375.6 -47.7 375 -45.7 L 375 -45.7 L 375 -45.7 Q 374.4 -43.8 373.3 -38.6 L 373.3 -38.6 L 373.3 -38.6 Q 372.2 -33.3 372.2 -29.6 L 372.2 -29.6 L 372.2 -29.6 Q 372.2 -25.9 372.8 -24.8 L 372.8 -24.8 L 372.8 -24.8 Q 373.4 -23.7 374.4 -23.7 L 374.4 -23.7 L 374.4 -23.7 Q 376.5 -23.7 378 -25.7 L 378 -25.7 L 378 -25.7 Q 379.5 -27.6 380.1 -31.1 L 380.1 -31.1 L 383.4 -49.9 L 383.4 -49.9 Q 382.1 -51 380.5 -51 L 380.5 -51 L 380.5 -51 Q 379 -51 378 -50.5 L 378 -50.5 L 378 -50.5 Q 377.1 -50 376.4 -48.8 Z M 420.3 -38.9 L 420.3 -38.9 L 420.3 -38.9 Q 422.6 -43 422.6 -47.2 L 422.6 -47.2 L 422.6 -47.2 Q 422.6 -49.9 420.6 -49.9 L 420.6 -49.9 L 420.6 -49.9 Q 419.1 -49.9 417.5 -47.3 L 417.5 -47.3 L 417.5 -47.3 Q 415.8 -44.7 415.3 -41.3 L 415.3 -41.3 L 412 -20.9 L 398.7 -19.6 L 405.3 -53.6 L 415.8 -54.8 L 414.7 -48.4 L 414.7 -48.4 Q 417.8 -54.8 424.9 -54.8 L 424.9 -54.8 L 424.9 -54.8 Q 428.6 -54.8 430.6 -52.9 L 430.6 -52.9 L 430.6 -52.9 Q 432.6 -51 432.6 -47.1 L 432.6 -47.1 L 432.6 -47.1 Q 432.6 -43.1 430 -40.6 L 430 -40.6 L 430 -40.6 Q 427.4 -38.1 423 -38.1 L 423 -38.1 L 423 -38.1 Q 421.1 -38.1 420.3 -38.9 Z M 454 -28.2 L 454 -28.2 L 454 -28.2 Q 450.6 -24.7 444.6 -24.7 L 444.6 -24.7 L 444.6 -24.7 Q 436.9 -24.7 435.3 -30.3 L 435.3 -30.3 L 435.3 -30.3 Q 434.8 -31.9 434.8 -33.8 L 434.8 -33.8 L 434.8 -33.8 Q 434.8 -35.6 435.2 -37.6 L 435.2 -37.6 L 438.2 -53.6 L 451.2 -54.8 L 447.7 -36.2 L 447.7 -36.2 Q 447.6 -35.4 447.4 -34.5 L 447.4 -34.5 L 447.4 -34.5 Q 447.2 -33.6 447.2 -32.7 L 447.2 -32.7 L 447.2 -32.7 Q 447.2 -31.7 447.5 -31.1 L 447.5 -31.1 L 447.5 -31.1 Q 447.8 -30.5 448.3 -30.1 L 448.3 -30.1 L 448.3 -30.1 Q 449 -29.6 450.4 -29.6 L 450.4 -29.6 L 450.4 -29.6 Q 451.8 -29.6 453 -31.3 L 453 -31.3 L 453 -31.3 Q 454.2 -33 454.7 -35.8 L 454.7 -35.8 L 458.3 -53.6 L 470.9 -54.8 L 466.1 -29.7 L 466.1 -29.7 Q 463.7 -17.4 458.8 -12.5 L 458.8 -12.5 L 458.8 -12.5 Q 456.3 -10 453.1 -9.1 L 453.1 -9.1 L 453.1 -9.1 Q 449.9 -8.1 445.7 -8.1 L 445.7 -8.1 L 445.7 -8.1 Q 439 -8.1 435.2 -10.2 L 435.2 -10.2 L 435.2 -10.2 Q 431.3 -12.3 431.3 -15.8 L 431.3 -15.8 L 431.3 -15.8 Q 431.3 -18.4 433.3 -19.9 L 433.3 -19.9 L 433.3 -19.9 Q 435.3 -21.4 438.4 -21.4 L 438.4 -21.4 L 438.4 -21.4 Q 441 -21.4 443.1 -20.3 L 443.1 -20.3 L 443.1 -20.3 Q 444.3 -19.6 444.9 -18.7 L 444.9 -18.7 L 444.9 -18.7 Q 443.4 -17.4 443.4 -15.3 L 443.4 -15.3 L 443.4 -15.3 Q 443.4 -12.5 446 -12.5 L 446 -12.5 L 446 -12.5 Q 450.2 -12.5 452.6 -22.2 L 452.6 -22.2 L 452.6 -22.2 Q 453.3 -25.1 454 -28.2 Z" fill="url(#editing-shiny-gradient2)"></path></g></g><style>text {
  font-size: 64px;
  font-family: Arial Black;
  dominant-baseline: central;
  text-anchor: middle;
}</style></svg>